<svg id="svg" version="1.1" xmlns="http://www.w3.org/2000/svg" xmlns:xlink="http://www.w3.org/1999/xlink" width="400" height="250.89141004862236" viewBox="0, 0, 400,250.89141004862236"><g id="svgg"><path id="path0" d="M304.223 0.690 C 321.866 0.726,350.662 0.726,368.213 0.690 C 385.765 0.655,371.330 0.625,336.136 0.625 C 300.941 0.625,286.581 0.655,304.223 0.690 M207.882 5.834 C 207.965 8.629,208.147 15.772,208.287 21.706 C 208.427 27.641,208.649 33.965,208.780 35.759 C 208.912 37.553,209.082 42.183,209.157 46.048 C 209.232 49.912,209.361 54.148,209.443 55.461 L 209.592 57.847 206.992 58.278 C 205.562 58.515,201.286 59.112,197.491 59.604 C 193.695 60.097,190.420 60.550,190.213 60.611 C 190.006 60.672,186.449 61.169,182.308 61.715 C 178.168 62.262,173.538 62.886,172.020 63.103 C 165.951 63.970,163.690 64.282,156.462 65.250 C 152.321 65.804,148.256 66.364,147.428 66.494 C 146.600 66.623,143.664 67.017,140.903 67.368 C 138.143 67.719,134.868 68.174,133.626 68.378 C 132.384 68.583,128.262 69.152,124.467 69.644 C 120.671 70.135,117.396 70.586,117.189 70.644 C 116.982 70.703,115.458 70.922,113.802 71.130 C 112.146 71.339,108.306 71.850,105.270 72.267 C 102.233 72.683,98.789 73.138,97.616 73.277 C 96.443 73.416,94.326 73.721,92.911 73.955 L 90.339 74.380 90.327 75.647 C 90.321 76.343,90.098 80.640,89.832 85.194 C 89.219 95.718,88.221 113.860,87.721 123.588 C 87.508 127.729,87.276 131.534,87.204 132.045 C 87.133 132.555,86.850 137.356,86.575 142.712 C 86.301 148.068,85.793 157.588,85.448 163.866 C 85.102 170.145,84.698 177.880,84.551 181.054 C 84.403 184.228,84.226 187.206,84.157 187.671 L 84.031 188.516 80.347 188.350 C 78.320 188.259,75.872 188.078,74.906 187.948 C 73.940 187.818,70.665 187.541,67.629 187.330 C 64.592 187.120,61.205 186.837,60.100 186.701 C 58.996 186.564,56.004 186.334,53.450 186.189 C 50.897 186.045,47.905 185.822,46.801 185.694 C 45.696 185.565,42.422 185.286,39.523 185.073 C 36.625 184.861,33.858 184.633,33.375 184.569 C 32.892 184.504,29.900 184.279,26.725 184.069 C 23.551 183.860,20.050 183.573,18.946 183.433 C 17.842 183.292,13.777 182.953,9.912 182.679 C 6.048 182.405,2.237 182.111,1.443 182.024 L 0.000 181.867 0.000 216.112 L 0.000 250.357 16.374 250.523 C 25.380 250.615,70.747 250.662,117.189 250.628 C 163.632 250.594,186.076 250.537,167.064 250.502 C 136.264 250.444,131.434 250.359,132.731 249.895 C 132.859 249.849,136.172 246.650,140.091 242.785 C 144.011 238.921,151.836 231.242,157.479 225.721 C 163.123 220.201,170.736 212.729,174.397 209.118 C 178.058 205.507,181.619 202.012,182.309 201.352 C 182.999 200.692,188.363 195.445,194.228 189.692 C 200.094 183.939,205.485 178.666,206.207 177.974 L 207.522 176.714 207.775 162.949 C 207.915 155.379,208.141 143.425,208.279 136.386 C 208.416 129.348,208.699 112.861,208.907 99.749 C 209.115 86.637,209.398 72.974,209.536 69.385 C 209.674 65.797,209.787 61.723,209.787 60.333 L 209.787 57.805 213.482 54.436 C 215.515 52.583,217.914 50.379,218.815 49.538 C 219.715 48.698,221.129 47.408,221.957 46.671 C 222.785 45.934,223.519 45.267,223.588 45.188 C 223.657 45.109,225.069 43.802,226.725 42.284 C 228.381 40.765,229.793 39.460,229.862 39.383 C 229.931 39.306,231.230 38.122,232.748 36.753 C 234.266 35.383,236.129 33.684,236.888 32.977 C 238.530 31.448,245.597 24.962,255.594 15.809 C 259.588 12.152,263.592 8.475,264.490 7.638 C 265.388 6.802,267.445 4.910,269.060 3.435 L 271.997 0.753 239.864 0.753 L 207.731 0.753 207.882 5.834 " stroke="none" fill="#9fce8a" fill-rule="evenodd"></path><path id="path1" d="M322.643 82.120 C 322.297 83.076,321.594 85.453,319.801 91.719 C 319.277 93.551,318.558 96.009,315.653 105.897 C 315.105 107.760,314.398 110.188,314.080 111.292 C 313.763 112.396,313.082 114.711,312.567 116.437 C 312.052 118.162,311.069 121.493,310.384 123.839 C 309.698 126.186,308.621 129.856,307.990 131.995 C 307.359 134.134,306.697 136.393,306.518 137.014 C 305.735 139.730,303.753 146.513,302.595 150.439 C 301.903 152.785,300.910 156.173,300.387 157.967 C 299.865 159.762,299.262 161.794,299.047 162.484 C 298.831 163.174,298.410 164.586,298.110 165.621 C 297.810 166.656,297.450 167.575,297.310 167.662 C 297.021 167.842,297.302 174.906,297.598 174.906 C 297.695 174.906,297.988 178.068,298.248 181.932 C 298.508 185.797,298.811 188.959,298.921 188.959 C 299.031 188.959,299.121 190.060,299.119 191.405 C 299.117 194.487,299.655 202.593,299.874 202.760 C 300.084 202.921,300.889 214.986,300.883 217.880 C 300.880 219.087,300.974 220.075,301.090 220.075 C 301.206 220.075,301.450 222.447,301.631 225.345 C 301.812 228.243,302.036 230.615,302.127 230.615 C 302.306 230.615,302.782 237.756,303.035 244.228 C 303.120 246.402,303.291 248.181,303.414 248.181 C 303.538 248.181,303.639 248.689,303.639 249.310 L 303.639 250.439 351.821 250.439 L 400.004 250.439 399.939 201.799 L 399.875 153.159 398.326 151.611 C 397.475 150.759,396.717 150.063,396.643 150.063 C 396.570 150.063,395.786 149.329,394.902 148.432 C 394.018 147.535,393.159 146.801,392.994 146.801 C 392.828 146.801,392.750 146.709,392.819 146.597 C 392.888 146.485,392.492 146.005,391.940 145.531 C 391.387 145.056,389.698 143.454,388.187 141.970 C 386.675 140.486,385.373 139.272,385.294 139.272 C 385.118 139.272,383.822 138.110,383.093 137.298 C 381.948 136.022,379.332 133.501,379.153 133.501 C 379.050 133.501,377.728 132.258,376.216 130.740 C 374.704 129.222,373.347 127.980,373.200 127.980 C 373.053 127.980,372.861 127.754,372.773 127.478 C 372.685 127.202,372.456 126.976,372.263 126.976 C 372.070 126.976,371.790 126.747,371.640 126.467 C 371.490 126.187,371.260 126.025,371.129 126.106 C 370.998 126.187,370.891 126.132,370.891 125.984 C 370.891 125.622,368.125 122.854,367.542 122.633 C 367.287 122.536,367.020 122.231,366.948 121.956 C 366.876 121.681,366.721 121.455,366.604 121.455 C 366.486 121.455,365.807 120.891,365.095 120.201 C 364.383 119.511,363.673 118.946,363.517 118.946 C 363.361 118.946,363.081 118.599,362.893 118.175 C 362.700 117.739,362.184 117.229,361.703 117.000 C 361.235 116.777,360.853 116.443,360.853 116.257 C 360.853 116.071,360.680 115.853,360.469 115.771 C 360.116 115.636,358.525 114.101,356.754 112.187 C 356.363 111.764,355.880 111.418,355.681 111.418 C 355.483 111.418,355.213 111.136,355.082 110.790 C 354.950 110.445,354.734 110.163,354.601 110.163 C 354.468 110.163,353.168 109.006,351.712 107.591 C 347.560 103.557,344.441 100.599,344.147 100.417 C 343.999 100.326,343.805 100.053,343.716 99.812 C 343.627 99.570,343.406 99.373,343.226 99.373 C 343.045 99.373,342.708 99.175,342.477 98.934 C 342.247 98.692,341.938 98.381,341.792 98.243 C 341.645 98.105,340.610 97.061,339.490 95.922 C 338.371 94.784,337.361 93.852,337.246 93.852 C 337.131 93.852,335.755 92.553,334.186 90.966 C 332.618 89.379,331.248 88.080,331.141 88.080 C 331.034 88.080,330.003 87.120,328.851 85.947 C 327.699 84.774,326.636 83.814,326.490 83.814 C 326.343 83.814,326.223 83.648,326.223 83.444 C 326.223 83.240,325.913 82.875,325.533 82.634 C 325.154 82.392,324.787 82.129,324.718 82.049 C 324.502 81.798,323.359 81.054,323.190 81.054 C 323.102 81.054,322.856 81.534,322.643 82.120 " stroke="none" fill="#227b43" fill-rule="evenodd"></path><path id="path2" d="M-0.000 37.762 L -0.000 75.023 11.731 74.903 C 25.775 74.758,86.913 74.442,88.732 74.504 C 90.413 74.562,90.476 74.453,90.823 70.891 C 90.983 69.235,91.221 67.277,91.350 66.542 C 91.479 65.806,91.983 61.458,92.470 56.880 C 92.957 52.303,93.521 47.315,93.725 45.797 C 94.059 43.302,94.826 36.549,96.490 21.455 C 96.961 17.180,98.229 5.909,98.709 1.735 L 98.812 0.835 71.928 0.669 C 57.142 0.577,34.909 0.502,22.522 0.502 L 0.000 0.502 -0.000 37.762 " stroke="none" fill="#e6f4b3" fill-rule="evenodd"></path><path id="path3" d="M308.016 1.317 C 308.293 2.618,309.979 11.656,311.163 18.193 C 311.864 22.058,312.548 25.671,312.683 26.223 C 312.819 26.775,313.318 29.373,313.792 31.995 C 314.776 37.439,316.729 47.897,317.283 50.690 C 317.488 51.725,317.955 54.210,318.319 56.211 C 319.055 60.245,319.495 62.619,320.062 65.621 C 320.271 66.725,320.787 69.548,321.209 71.895 C 321.631 74.241,322.182 77.064,322.433 78.168 C 323.143 81.289,323.322 81.206,318.319 80.071 C 317.629 79.914,315.088 79.398,312.673 78.924 C 302.089 76.845,293.101 75.034,291.593 74.676 C 290.696 74.463,288.381 73.997,286.449 73.641 C 284.517 73.284,282.033 72.779,280.928 72.517 C 279.824 72.256,277.340 71.748,275.408 71.388 C 273.476 71.029,270.935 70.526,269.762 70.271 C 268.588 70.017,267.008 69.690,266.248 69.546 C 261.816 68.702,255.544 67.433,253.701 67.007 C 252.528 66.736,249.762 66.173,247.553 65.756 C 245.345 65.338,242.861 64.830,242.033 64.626 C 241.205 64.422,238.946 63.963,237.014 63.605 C 235.082 63.248,232.541 62.739,231.368 62.475 C 230.194 62.211,226.073 61.366,222.208 60.597 C 218.344 59.828,214.112 58.976,212.804 58.704 C 209.480 58.011,209.787 57.227,209.785 66.429 C 209.783 78.782,209.345 106.972,208.902 123.338 C 208.682 131.481,208.354 146.725,208.173 157.215 C 207.992 167.704,207.757 176.495,207.650 176.750 C 207.483 177.148,207.524 177.177,207.931 176.953 C 208.193 176.809,212.415 176.289,217.315 175.796 C 222.215 175.304,230.966 174.400,236.763 173.788 C 251.171 172.268,265.810 170.746,270.640 170.267 C 272.848 170.048,275.615 169.752,276.788 169.610 C 277.961 169.467,283.005 168.934,287.997 168.426 C 292.989 167.918,297.151 167.424,297.247 167.328 C 297.343 167.232,297.621 166.442,297.864 165.572 C 298.647 162.770,300.615 156.065,301.006 154.865 C 301.214 154.225,301.790 152.290,302.284 150.565 C 302.779 148.839,303.466 146.468,303.811 145.295 C 305.498 139.563,306.509 136.082,307.419 132.873 C 307.967 130.941,308.519 129.134,308.646 128.858 C 308.773 128.582,309.287 126.888,309.788 125.094 C 311.384 119.384,311.595 118.647,312.771 114.680 C 313.406 112.541,314.267 109.605,314.685 108.156 C 315.104 106.706,315.776 104.448,316.178 103.137 C 316.889 100.823,317.904 97.345,319.071 93.225 C 322.957 79.512,322.521 80.431,325.253 80.203 C 326.375 80.110,327.475 79.936,327.699 79.818 C 327.922 79.699,329.686 79.356,331.619 79.055 C 333.551 78.753,336.374 78.295,337.892 78.036 C 339.410 77.778,342.685 77.229,345.169 76.817 C 350.718 75.897,353.565 75.395,355.215 75.045 C 355.910 74.898,357.378 74.669,358.477 74.537 C 360.780 74.260,365.751 73.415,367.314 73.035 C 367.900 72.892,369.481 72.658,370.827 72.515 C 372.173 72.372,373.501 72.153,373.777 72.027 C 374.053 71.901,376.593 71.446,379.423 71.014 C 382.252 70.583,385.132 70.119,385.822 69.983 C 389.281 69.303,395.691 68.245,398.683 67.859 L 400.000 67.689 400.000 55.449 L 400.000 43.209 398.306 41.972 C 394.008 38.831,386.574 33.437,385.741 32.855 C 384.195 31.774,373.892 24.355,372.020 22.975 C 371.054 22.262,368.852 20.672,367.127 19.442 C 365.402 18.212,362.861 16.375,361.481 15.362 C 360.100 14.348,358.576 13.240,358.093 12.899 C 357.610 12.559,355.859 11.295,354.203 10.089 C 352.547 8.884,350.952 7.730,350.659 7.525 C 348.622 6.098,342.674 1.804,342.393 1.557 C 341.509 0.780,340.911 0.753,324.478 0.753 L 307.895 0.753 308.016 1.317 M207.187 177.970 C 207.102 178.286,207.049 179.222,207.068 180.050 C 207.101 181.520,207.106 181.507,207.277 179.548 C 207.463 177.428,207.440 177.027,207.187 177.970 M206.858 183.312 C 206.859 184.279,206.904 184.643,206.959 184.122 C 207.013 183.602,207.012 182.811,206.957 182.366 C 206.901 181.920,206.857 182.346,206.858 183.312 M206.607 186.826 C 206.608 187.792,206.653 188.156,206.708 187.636 C 206.762 187.115,206.761 186.324,206.706 185.879 C 206.650 185.433,206.606 185.859,206.607 186.826 M206.180 191.531 C 205.757 198.141,205.770 197.781,206.016 196.236 C 206.288 194.526,206.633 188.959,206.467 188.959 C 206.400 188.959,206.271 190.116,206.180 191.531 M204.935 207.457 C 204.739 209.341,204.505 214.542,204.639 214.053 C 204.796 213.476,205.293 206.213,205.183 206.103 C 205.129 206.049,205.018 206.659,204.935 207.457 M203.885 221.701 C 203.784 223.303,203.757 224.669,203.824 224.736 C 203.891 224.803,204.027 223.546,204.125 221.942 C 204.224 220.339,204.251 218.973,204.186 218.908 C 204.120 218.842,203.985 220.099,203.885 221.701 M203.582 226.098 C 203.582 226.719,203.630 226.973,203.690 226.662 C 203.750 226.352,203.750 225.844,203.690 225.533 C 203.630 225.223,203.582 225.477,203.582 226.098 M203.320 229.360 C 203.320 229.843,203.372 230.041,203.435 229.799 C 203.498 229.558,203.498 229.162,203.435 228.921 C 203.372 228.679,203.320 228.877,203.320 229.360 M203.083 233.250 C 203.085 233.940,203.134 234.192,203.191 233.811 C 203.249 233.429,203.248 232.865,203.188 232.556 C 203.128 232.248,203.081 232.560,203.083 233.250 M202.646 237.904 C 202.547 239.300,202.520 240.496,202.585 240.561 C 202.651 240.626,202.786 239.538,202.886 238.143 C 202.986 236.748,203.013 235.552,202.947 235.486 C 202.881 235.419,202.745 236.507,202.646 237.904 M283.250 250.627 C 287.149 250.666,293.529 250.666,297.428 250.627 C 301.327 250.588,298.137 250.556,290.339 250.556 C 282.541 250.556,279.351 250.588,283.250 250.627 " stroke="none" fill="#58a463" fill-rule="evenodd"></path><path id="path4" d="M0.000 0.251 C 0.000 0.416,7.675 0.502,22.522 0.502 C 34.909 0.502,57.142 0.577,71.928 0.669 L 98.812 0.835 98.709 1.735 C 98.229 5.909,96.961 17.180,96.490 21.455 C 94.826 36.549,94.059 43.302,93.725 45.797 C 93.521 47.315,92.957 52.303,92.470 56.880 C 91.983 61.458,91.479 65.806,91.350 66.542 C 91.221 67.277,90.983 69.235,90.823 70.891 C 90.477 74.450,90.413 74.560,88.732 74.509 C 85.898 74.424,14.657 74.802,7.591 74.940 L -0.000 75.089 -0.000 128.478 L 0.000 181.867 1.443 182.024 C 2.237 182.111,6.048 182.405,9.912 182.679 C 13.777 182.953,17.842 183.292,18.946 183.433 C 20.050 183.573,23.551 183.860,26.725 184.069 C 29.900 184.279,32.892 184.504,33.375 184.569 C 33.858 184.633,36.625 184.861,39.523 185.073 C 42.422 185.286,45.696 185.565,46.801 185.694 C 47.905 185.822,50.897 186.045,53.450 186.189 C 56.004 186.334,58.996 186.564,60.100 186.701 C 61.205 186.837,64.592 187.120,67.629 187.330 C 70.665 187.541,73.940 187.818,74.906 187.948 C 75.872 188.078,78.320 188.259,80.347 188.350 L 84.031 188.516 84.157 187.671 C 84.226 187.206,84.403 184.228,84.551 181.054 C 84.698 177.880,85.102 170.145,85.448 163.866 C 85.793 157.588,86.301 148.068,86.575 142.712 C 86.850 137.356,87.133 132.555,87.204 132.045 C 87.276 131.534,87.508 127.729,87.721 123.588 C 88.221 113.860,89.219 95.718,89.832 85.194 C 90.098 80.640,90.321 76.343,90.327 75.647 L 90.339 74.380 92.911 73.955 C 94.326 73.721,96.443 73.416,97.616 73.277 C 98.789 73.138,102.233 72.683,105.270 72.267 C 108.306 71.850,112.146 71.339,113.802 71.130 C 115.458 70.922,116.982 70.703,117.189 70.644 C 117.396 70.586,120.671 70.135,124.467 69.644 C 128.262 69.152,132.384 68.583,133.626 68.378 C 134.868 68.174,138.143 67.719,140.903 67.368 C 143.664 67.017,146.600 66.623,147.428 66.494 C 148.256 66.364,152.321 65.804,156.462 65.250 C 163.690 64.282,165.951 63.970,172.020 63.103 C 173.538 62.886,178.168 62.262,182.308 61.715 C 186.449 61.169,190.006 60.672,190.213 60.611 C 190.420 60.550,193.695 60.097,197.491 59.604 C 201.286 59.112,205.550 58.516,206.967 58.282 L 209.542 57.856 209.396 54.210 C 209.316 52.205,209.146 47.233,209.018 43.162 C 208.890 39.090,208.677 32.880,208.543 29.360 C 208.231 21.100,207.748 0.951,207.860 0.839 C 207.907 0.792,251.158 0.678,303.973 0.586 C 356.788 0.494,400.000 0.324,400.000 0.209 C 400.000 0.094,310.000 0.000,200.000 0.000 C 66.834 0.000,0.000 0.084,0.000 0.251 M-0.000 250.753 C -0.000 250.856,90.028 250.917,200.063 250.888 C 310.097 250.858,398.940 250.803,397.491 250.765 C 391.106 250.596,-0.000 250.584,-0.000 250.753 " stroke="none" fill="#cceab4" fill-rule="evenodd"></path><path id="path5" d="M269.060 3.435 C 267.445 4.910,265.388 6.802,264.490 7.638 C 263.592 8.475,259.588 12.152,255.594 15.809 C 245.597 24.962,238.530 31.448,236.888 32.977 C 236.129 33.684,234.266 35.383,232.748 36.753 C 231.230 38.122,229.931 39.306,229.862 39.383 C 229.793 39.460,228.381 40.765,226.725 42.284 C 225.069 43.802,223.657 45.109,223.588 45.188 C 223.519 45.267,222.785 45.934,221.957 46.671 C 221.129 47.408,219.715 48.698,218.815 49.538 C 217.914 50.379,215.515 52.583,213.482 54.436 C 211.450 56.289,209.787 57.977,209.787 58.188 C 209.787 58.440,209.871 58.485,210.036 58.321 C 210.201 58.156,212.302 58.482,216.247 59.285 C 219.526 59.952,224.693 60.997,227.729 61.607 C 230.765 62.216,239.404 63.965,246.926 65.493 C 254.448 67.021,263.087 68.770,266.123 69.379 C 269.159 69.988,274.467 71.065,277.917 71.771 C 281.368 72.478,285.038 73.218,286.073 73.415 C 287.108 73.613,290.439 74.285,293.476 74.909 C 296.512 75.533,301.481 76.545,304.517 77.158 C 307.553 77.771,312.804 78.833,316.186 79.518 C 319.567 80.204,322.416 80.685,322.518 80.587 C 322.619 80.490,322.374 78.777,321.975 76.780 C 321.575 74.783,320.722 70.213,320.080 66.625 C 319.437 63.036,318.696 59.084,318.431 57.842 C 317.885 55.276,317.050 50.674,316.792 48.808 C 316.697 48.118,316.525 47.301,316.410 46.992 C 316.295 46.683,315.796 44.086,315.302 41.220 C 314.808 38.355,314.243 35.332,314.046 34.504 C 313.848 33.676,313.580 32.321,313.449 31.493 C 313.318 30.665,312.910 28.407,312.541 26.474 C 312.172 24.542,311.604 21.493,311.280 19.699 C 310.055 12.934,307.911 1.579,307.761 1.066 C 307.689 0.819,303.886 0.753,289.833 0.753 L 271.997 0.753 269.060 3.435 M209.460 71.895 C 209.351 75.483,209.042 91.518,208.773 107.528 C 208.505 123.538,208.175 142.679,208.040 150.063 C 207.582 175.197,207.565 176.827,207.775 175.157 C 207.887 174.260,208.109 164.774,208.268 154.078 C 208.427 143.381,208.717 129.322,208.913 122.836 C 209.282 110.607,209.901 68.830,209.746 66.625 C 209.697 65.935,209.569 68.306,209.460 71.895 M206.186 177.980 C 205.584 178.566,200.248 183.795,194.328 189.599 C 188.407 195.403,182.999 200.692,182.309 201.352 C 181.619 202.012,178.058 205.507,174.397 209.118 C 170.736 212.729,163.123 220.201,157.479 225.721 C 151.836 231.242,144.012 238.918,140.094 242.780 C 136.175 246.641,132.838 249.882,132.678 249.981 C 132.048 250.370,134.850 250.390,204.141 250.493 C 243.476 250.552,258.981 250.563,238.598 250.519 L 201.537 250.437 201.641 249.623 C 201.697 249.175,202.037 244.235,202.396 238.645 C 202.755 233.055,203.146 228.297,203.265 228.071 C 203.384 227.845,203.608 224.627,203.761 220.919 C 203.915 217.212,204.109 214.009,204.192 213.802 C 204.392 213.307,205.469 199.858,205.770 194.103 C 205.900 191.619,206.126 188.344,206.272 186.826 C 206.418 185.307,206.651 182.710,206.790 181.054 C 206.929 179.398,207.150 177.789,207.280 177.478 C 207.615 176.682,207.432 176.766,206.186 177.980 " stroke="none" fill="#6cac6c" fill-rule="evenodd"></path><path id="path6" d="M308.210 3.262 C 308.208 3.607,308.296 4.172,308.407 4.517 C 308.677 5.360,308.677 4.449,308.407 3.388 C 308.234 2.711,308.214 2.699,308.210 3.262 M309.214 8.407 C 309.217 8.683,309.305 9.247,309.410 9.661 C 309.582 10.337,309.602 10.350,309.607 9.787 C 309.609 9.442,309.521 8.877,309.410 8.532 C 309.253 8.040,309.210 8.013,309.214 8.407 M310.418 15.328 C 310.420 15.662,310.533 16.104,310.668 16.311 C 310.842 16.576,310.867 16.427,310.754 15.809 C 310.555 14.727,310.413 14.523,310.418 15.328 M312.586 26.725 C 312.670 27.277,312.781 27.776,312.831 27.834 C 313.021 28.049,312.879 26.705,312.661 26.223 C 312.502 25.874,312.480 26.026,312.586 26.725 M313.592 32.120 C 313.673 32.880,313.837 33.726,313.955 34.003 C 314.197 34.568,314.010 33.073,313.657 31.619 C 313.496 30.954,313.480 31.076,313.592 32.120 M314.973 39.021 C 314.963 39.297,315.105 40.257,315.289 41.154 C 315.473 42.051,315.632 42.560,315.642 42.284 C 315.652 42.008,315.510 41.048,315.326 40.151 C 315.141 39.253,314.983 38.745,314.973 39.021 M315.844 44.117 C 315.922 44.849,316.083 45.753,316.202 46.125 C 316.480 46.994,316.249 44.940,315.925 43.660 C 315.745 42.952,315.730 43.040,315.844 44.117 M316.980 49.812 C 316.974 50.088,317.121 51.048,317.306 51.945 C 317.491 52.842,317.648 53.294,317.656 52.949 C 317.663 52.604,317.517 51.644,317.330 50.816 C 317.143 49.987,316.985 49.536,316.980 49.812 M317.967 55.257 C 317.934 55.827,318.466 58.280,318.595 58.151 C 318.651 58.095,318.538 57.325,318.345 56.440 C 318.151 55.555,317.981 55.023,317.967 55.257 M320.365 68.130 C 320.449 68.683,320.560 69.181,320.610 69.239 C 320.801 69.454,320.658 68.110,320.440 67.629 C 320.282 67.279,320.259 67.431,320.365 68.130 M265.747 69.511 C 266.092 69.621,266.656 69.709,267.001 69.707 C 267.565 69.703,267.552 69.683,266.876 69.511 C 265.814 69.241,264.903 69.241,265.747 69.511 M321.253 72.898 C 321.253 73.677,321.887 76.453,321.912 75.784 C 321.920 75.577,321.775 74.674,321.590 73.777 C 321.405 72.880,321.253 72.484,321.253 72.898 M322.459 79.408 C 322.459 79.745,322.552 80.078,322.665 80.148 C 322.778 80.217,322.821 79.942,322.762 79.535 C 322.630 78.638,322.459 78.566,322.459 79.408 M206.440 184.360 C 206.250 185.030,205.680 195.224,205.824 195.368 C 205.892 195.436,206.023 194.275,206.116 192.789 C 206.210 191.303,206.391 188.737,206.518 187.085 C 206.741 184.200,206.718 183.382,206.440 184.360 M205.421 199.029 C 205.352 199.356,205.230 200.809,205.148 202.258 C 205.066 203.708,204.932 205.571,204.850 206.399 C 204.768 207.227,204.772 207.840,204.858 207.761 C 204.944 207.682,205.171 205.593,205.363 203.118 C 205.691 198.887,205.709 197.653,205.421 199.029 M204.580 210.414 C 204.583 210.966,204.634 211.162,204.694 210.850 C 204.754 210.538,204.752 210.086,204.689 209.847 C 204.627 209.607,204.577 209.862,204.580 210.414 M204.216 213.676 C 204.045 214.202,203.702 221.892,203.869 221.455 C 204.063 220.950,204.571 214.657,204.477 213.927 C 204.396 213.298,204.353 213.257,204.216 213.676 M203.163 228.132 C 202.965 228.750,202.457 237.924,202.612 238.078 C 202.693 238.160,202.767 237.784,202.775 237.244 C 202.782 236.703,202.938 234.398,203.120 232.120 C 203.428 228.270,203.439 227.266,203.163 228.132 M202.058 243.413 C 201.735 248.241,201.689 249.591,201.854 249.414 C 202.009 249.248,202.580 239.824,202.469 239.270 C 202.414 238.995,202.229 240.859,202.058 243.413 " stroke="none" fill="#65a664" fill-rule="evenodd"></path><path id="path7" d="M322.484 81.706 C 322.340 82.229,322.267 82.702,322.322 82.757 C 322.377 82.812,322.541 82.430,322.685 81.907 C 322.829 81.384,322.902 80.912,322.847 80.856 C 322.792 80.801,322.629 81.184,322.484 81.706 M321.627 84.373 C 320.288 88.779,319.553 91.791,320.230 90.093 C 320.697 88.923,322.255 83.276,322.142 83.163 C 322.080 83.101,321.849 83.646,321.627 84.373 M319.340 92.116 C 318.939 93.463,318.830 94.302,319.089 94.044 C 319.315 93.818,319.993 91.051,319.856 90.914 C 319.788 90.847,319.556 91.387,319.340 92.116 M318.358 95.527 C 317.284 99.246,316.657 101.684,316.750 101.777 C 316.814 101.841,317.287 100.413,317.802 98.605 C 318.317 96.797,318.682 95.261,318.614 95.193 C 318.546 95.125,318.430 95.275,318.358 95.527 M316.099 103.309 C 315.414 105.442,314.435 109.249,314.545 109.358 C 314.603 109.417,314.822 108.859,315.033 108.120 C 315.243 107.380,315.703 105.770,316.055 104.541 C 316.728 102.186,316.763 101.245,316.099 103.309 M313.865 110.935 C 311.817 117.737,310.740 121.676,310.988 121.453 C 311.067 121.382,311.595 119.745,312.163 117.814 C 312.730 115.883,313.475 113.351,313.817 112.187 C 314.160 111.022,314.403 109.958,314.357 109.822 C 314.312 109.685,314.090 110.186,313.865 110.935 M310.326 123.005 C 309.362 126.344,308.875 128.281,308.976 128.382 C 309.036 128.442,309.500 127.006,310.008 125.190 C 310.516 123.374,310.882 121.840,310.821 121.779 C 310.761 121.719,310.538 122.270,310.326 123.005 M308.546 129.011 C 308.074 130.346,306.647 135.840,306.746 135.938 C 306.813 136.006,306.985 135.626,307.129 135.094 C 307.273 134.563,307.723 132.943,308.130 131.495 C 308.537 130.047,308.825 128.817,308.770 128.761 C 308.715 128.706,308.614 128.818,308.546 129.011 M306.192 137.060 C 306.051 137.518,305.636 138.965,305.270 140.276 C 304.904 141.587,304.396 143.338,304.141 144.166 C 302.441 149.681,300.976 155.068,301.250 154.793 C 301.339 154.705,301.960 152.729,302.630 150.403 C 303.301 148.076,304.378 144.366,305.024 142.158 C 306.360 137.591,306.659 136.437,306.536 136.314 C 306.488 136.266,306.334 136.602,306.192 137.060 M300.525 156.372 C 300.315 157.111,299.855 158.722,299.504 159.951 C 299.152 161.180,298.914 162.235,298.975 162.296 C 299.036 162.357,299.314 161.634,299.593 160.689 C 300.598 157.278,301.120 155.240,301.015 155.135 C 300.956 155.076,300.736 155.633,300.525 156.372 M298.269 164.142 C 298.020 165.025,297.684 166.138,297.521 166.617 L 297.225 167.488 288.073 168.419 C 283.039 168.931,277.961 169.467,276.788 169.610 C 275.615 169.752,272.848 170.048,270.640 170.267 C 265.673 170.760,250.763 172.310,236.637 173.802 C 230.772 174.422,221.940 175.347,217.012 175.858 C 211.560 176.424,207.935 176.906,207.752 177.089 C 207.557 177.285,207.209 180.749,206.755 187.002 C 206.371 192.287,205.990 197.064,205.908 197.616 C 205.826 198.168,205.538 201.782,205.269 205.646 C 204.147 221.711,204.009 223.569,203.768 225.847 C 203.629 227.158,203.345 230.772,203.137 233.877 C 202.929 236.982,202.593 241.556,202.389 244.040 C 202.185 246.524,202.016 248.981,202.013 249.498 L 202.008 250.439 252.823 250.439 L 303.639 250.439 303.639 249.310 C 303.639 248.689,303.538 248.181,303.414 248.181 C 303.291 248.181,303.120 246.402,303.035 244.228 C 302.782 237.756,302.306 230.615,302.127 230.615 C 302.036 230.615,301.812 228.243,301.631 225.345 C 301.450 222.447,301.206 220.075,301.090 220.075 C 300.974 220.075,300.880 219.087,300.883 217.880 C 300.889 214.986,300.084 202.921,299.874 202.760 C 299.655 202.593,299.117 194.487,299.119 191.405 C 299.121 190.060,299.031 188.959,298.921 188.959 C 298.811 188.959,298.508 185.797,298.248 181.932 C 297.988 178.068,297.695 174.906,297.598 174.906 C 297.293 174.906,297.022 167.841,297.320 167.657 C 297.616 167.474,298.927 163.155,298.801 162.778 C 298.757 162.646,298.518 163.260,298.269 164.142 M313.614 250.627 C 318.755 250.665,327.168 250.665,332.309 250.627 C 337.450 250.589,333.243 250.558,322.961 250.558 C 312.679 250.558,308.472 250.589,313.614 250.627 " stroke="none" fill="#3a9c54" fill-rule="evenodd"></path><path id="path8" d="M341.653 1.057 C 341.928 1.216,342.266 1.447,342.406 1.569 C 342.678 1.807,348.692 6.147,350.659 7.525 C 350.952 7.730,352.547 8.884,354.203 10.089 C 355.859 11.295,357.610 12.559,358.093 12.899 C 358.576 13.240,360.100 14.348,361.481 15.362 C 362.861 16.375,365.402 18.212,367.127 19.442 C 368.852 20.672,371.054 22.262,372.020 22.975 C 373.761 24.259,383.971 31.614,385.735 32.855 C 386.240 33.210,387.877 34.394,389.374 35.487 C 390.871 36.579,393.733 38.653,395.734 40.097 C 397.735 41.540,399.514 42.834,399.686 42.972 C 399.937 43.173,400.000 38.943,400.000 21.988 L 400.000 0.753 370.577 0.760 C 348.243 0.766,341.275 0.838,341.653 1.057 M395.734 68.279 C 394.147 68.539,391.662 68.926,390.213 69.140 C 388.764 69.353,387.296 69.631,386.951 69.757 C 386.606 69.883,385.477 70.106,384.442 70.253 C 379.208 70.997,374.224 71.827,373.777 72.029 C 373.501 72.154,372.173 72.372,370.827 72.515 C 369.481 72.658,367.900 72.892,367.314 73.035 C 365.751 73.415,360.780 74.260,358.477 74.537 C 357.378 74.669,355.910 74.898,355.215 75.045 C 353.565 75.395,350.718 75.897,345.169 76.817 C 342.685 77.229,339.410 77.777,337.892 78.036 C 336.374 78.294,333.607 78.742,331.744 79.031 C 329.881 79.321,328.074 79.667,327.729 79.800 C 327.384 79.934,326.207 80.129,325.114 80.235 C 323.191 80.420,322.408 80.845,323.405 81.161 C 323.664 81.243,324.094 81.508,324.360 81.749 C 324.626 81.990,325.154 82.387,325.533 82.630 C 325.913 82.874,326.223 83.240,326.223 83.444 C 326.223 83.648,326.343 83.814,326.490 83.814 C 326.636 83.814,327.699 84.774,328.851 85.947 C 330.003 87.120,331.034 88.080,331.141 88.080 C 331.248 88.080,332.618 89.379,334.186 90.966 C 335.755 92.553,337.131 93.852,337.246 93.852 C 337.361 93.852,338.357 94.770,339.460 95.892 C 340.563 97.014,341.599 98.059,341.762 98.213 C 341.925 98.368,342.247 98.692,342.477 98.934 C 342.708 99.175,343.045 99.373,343.226 99.373 C 343.406 99.373,343.627 99.570,343.716 99.812 C 343.805 100.053,343.999 100.326,344.147 100.417 C 344.441 100.599,347.560 103.557,351.712 107.591 C 353.168 109.006,354.468 110.163,354.601 110.163 C 354.734 110.163,354.950 110.445,355.082 110.790 C 355.213 111.136,355.483 111.418,355.681 111.418 C 355.880 111.418,356.363 111.764,356.754 112.187 C 358.525 114.101,360.116 115.636,360.469 115.771 C 360.680 115.853,360.853 116.071,360.853 116.257 C 360.853 116.443,361.235 116.777,361.703 117.000 C 362.184 117.229,362.700 117.739,362.893 118.175 C 363.081 118.599,363.361 118.946,363.517 118.946 C 363.673 118.946,364.383 119.511,365.095 120.201 C 365.807 120.891,366.486 121.455,366.604 121.455 C 366.721 121.455,366.876 121.681,366.948 121.956 C 367.020 122.231,367.287 122.536,367.542 122.633 C 368.125 122.854,370.891 125.622,370.891 125.984 C 370.891 126.132,370.998 126.187,371.129 126.106 C 371.260 126.025,371.490 126.187,371.640 126.467 C 371.790 126.747,372.070 126.976,372.263 126.976 C 372.456 126.976,372.685 127.202,372.773 127.478 C 372.861 127.754,373.053 127.980,373.200 127.980 C 373.347 127.980,374.704 129.222,376.216 130.740 C 377.728 132.258,379.050 133.501,379.153 133.501 C 379.332 133.501,381.948 136.022,383.093 137.298 C 383.822 138.110,385.118 139.272,385.294 139.272 C 385.373 139.272,386.675 140.486,388.187 141.970 C 389.698 143.454,391.387 145.056,391.940 145.531 C 392.492 146.005,392.888 146.485,392.819 146.597 C 392.750 146.709,392.828 146.801,392.994 146.801 C 393.159 146.801,394.018 147.535,394.902 148.432 C 395.786 149.329,396.570 150.063,396.643 150.063 C 396.873 150.063,399.658 152.930,399.813 153.326 C 399.894 153.533,399.969 134.363,399.980 110.728 L 400.000 67.754 399.310 67.781 C 398.930 67.795,397.321 68.020,395.734 68.279 M356.003 250.627 C 364.032 250.664,377.244 250.664,385.363 250.627 C 393.483 250.591,386.913 250.561,370.765 250.561 C 354.617 250.561,347.974 250.591,356.003 250.627 " stroke="none" fill="#447c4c" fill-rule="evenodd"></path></g></svg>